<mxfile host="app.diagrams.net" modified="2024-04-09T12:49:55.626Z" agent="Mozilla/5.0 (Windows NT 10.0; Win64; x64) AppleWebKit/537.36 (KHTML, like Gecko) Chrome/123.0.0.0 Safari/537.36 Edg/123.0.0.0" version="24.2.2" etag="Thx04WcXDJc3g0D59md8" type="github">
  <diagram name="第 1 页" id="kV46b2W_9YUuB0pRv1Lg">
    <mxGraphModel>
      <root>
        <mxCell id="0" />
        <mxCell id="1" parent="0" />
      </root>
    </mxGraphModel>
  </diagram>
</mxfile>
